<svg xmlns="http://www.w3.org/2000/svg" width="163.765" height="55.403" viewBox="0 0 163.765 55.403">
  <path id="Path_4" data-name="Path 4" d="M8.9-21.74V-3.386c0,.867-.027,2.858-.571,3.386h3.251c-.545-.528-.571-2.52-.572-3.386V-20.047a1.568,1.568,0,0,0-1.287-1.693l1.949,0c2.157,0,5.6-.221,6.063,1.5.972,0,1.748-.525,1.748-2.159H-.288c0,1.634.775,2.159,1.748,2.159.466-1.716,3.906-1.5,6.062-1.5ZM20.608,0h3.251c-.545-.528-.571-2.519-.572-3.386v-3.4c3.663-3.969,9.211-4.854,14.4-4.8q0,4.1,0,8.2c0,.868-.027,2.858-.572,3.386h3.251c-.545-.528-.57-2.519-.572-3.386V-21.151c.009-.5.178-.714.528-.8l-.12-.448a3.368,3.368,0,0,0-2.521,3.455l0,6.707c-5.167-.055-10.612.813-14.4,4.512q0-5.612,0-11.219A3.369,3.369,0,0,0,20.771-22.4l-.119.448c.35.087.519.3.528.8V-3.386C21.178-2.519,21.153-.528,20.608,0Zm26.6-12.618c2.157,0,5.6-.221,6.062,1.495.972,0,1.748-.525,1.748-2.159h-10.8c.039-3.448,1.4-6.606,4.568-7.882,3.71-1.493,6.918.819,8.862,3.956l1.676-1.267A9.441,9.441,0,0,0,51.8-22.4c-5.458,0-9.883,5.015-9.883,11.2S46.344,0,51.8,0a10.956,10.956,0,0,0,9.883-6.868,1.735,1.735,0,0,0-2.764.27c1.108,1.792-1.908,5.388-5.8,5.608-5.006.317-8.7-5.914-8.906-11.632ZM19.477,10.849c-1.523-.59-2.293-.058-2.644.849,1.432,1.055-.019,4.183-.8,6.193L10.52,32.128,3.644,13.985c-.4-1.061-.932-2.46-.681-3.386H-.288a13.92,13.92,0,0,1,1.683,3.385L8.6,33h2.287Zm4.5,9.534c2.157,0,5.6-.221,6.062,1.495.972,0,1.748-.525,1.748-2.159H20.98c.039-3.448,1.4-6.606,4.568-7.882,3.71-1.493,6.918.819,8.862,3.956l1.676-1.267A9.441,9.441,0,0,0,28.571,10.6c-5.458,0-9.883,5.015-9.883,11.2S23.112,33,28.571,33a10.956,10.956,0,0,0,9.883-6.868,1.735,1.735,0,0,0-2.764.27c1.108,1.792-1.908,5.388-5.8,5.608-5.006.317-8.7-5.914-8.906-11.632Zm18.117-6.328A3.369,3.369,0,0,0,39.576,10.6l-.12.448c.349.087.518.3.526.8V27.4a5.2,5.2,0,0,0,3.736,4.936l-4.262,0V33H56.323c0-1.634-.775-2.159-1.748-2.159-.466,1.716-3.906,1.5-6.063,1.5H46.489c-3.364-.041-4.4-2.535-4.4-6.683Zm29.737-3.205c-1.523-.59-2.293-.058-2.644.849,1.432,1.055-.019,4.183-.8,6.193L62.872,32.128,56,13.985c-.4-1.061-.932-2.46-.681-3.386H52.064a13.92,13.92,0,0,1,1.683,3.385L60.953,33H63.24Zm4.5,9.534c2.157,0,5.6-.221,6.062,1.495.972,0,1.748-.525,1.748-2.159h-10.8c.039-3.448,1.4-6.606,4.568-7.882,3.71-1.493,6.918.819,8.862,3.956l1.676-1.267A9.441,9.441,0,0,0,80.923,10.6c-5.458,0-9.883,5.015-9.883,11.2S75.464,33,80.923,33a10.956,10.956,0,0,0,9.883-6.868,1.735,1.735,0,0,0-2.764.27c1.108,1.792-1.908,5.388-5.8,5.608-5.006.317-8.7-5.914-8.906-11.632ZM98.24,11.26V29.614c0,.867-.027,2.858-.571,3.386h3.251c-.545-.528-.571-2.52-.572-3.386V12.953a1.568,1.568,0,0,0-1.287-1.693l1.949,0c2.157,0,5.6-.221,6.063,1.5.972,0,1.748-.525,1.748-2.159H89.056c0,1.634.775,2.159,1.748,2.159.466-1.716,3.906-1.5,6.062-1.5Zm38.13,4.495,1.773-1.367c-1.189-2.406-4.644-3.788-8.46-3.788h-9.27c.545.528.57,2.519.572,3.386V19.72h-1.369l.007.659h1.362v9.235c0,.867-.027,2.858-.572,3.386h3.251c-.545-.528-.57-2.518-.572-3.386V20.382h1.212c2.157,0,5.6-.221,6.063,1.5.972,0,1.748-.525,1.748-2.159h-9.023V14.055c0-2.025.9-2.8,2.836-2.8h3.862C133.009,11.259,135.76,13.116,136.37,15.755ZM138.912,33h3.251c-.545-.528-.571-2.519-.572-3.386q0-7.815,0-15.629c0-.867.027-2.858.572-3.386h-3.251c.545.528.57,2.519.572,3.386V29.614C139.482,30.481,139.457,32.472,138.912,33Zm18.976-12.62c1.764.048,3.519.307,3.842,1.5.972,0,1.748-.525,1.748-2.159H152.329l.007.659,1.132,0c8.216,0,8.42,11.959.126,11.959-4.293,0-7.774-4.719-7.774-10.542s3.481-10.542,7.774-10.542c2.636,0,4.965,1.779,6.37,4.5l1.7-1.651a9.966,9.966,0,0,0-8.07-3.5c-5.458,0-9.883,5.015-9.883,11.2S148.136,33,153.643,33C162.716,33,164.772,23.058,157.888,20.38Z" transform="translate(0.288 22.402)" fill="#f4f1ed"/>
</svg>
